<svg xmlns="http://www.w3.org/2000/svg" width="64" height="64" viewBox="0 0 64 64" role="img" aria-label="AllergyShield-AI logo">
  <rect width="64" height="64" rx="14" fill="#0f766e"/>
  <path fill="#ecfeff" d="M32 8 51 16v14c0 13.2-7.8 22.2-19 27.5C20.8 52.2 13 43.2 13 30V16z"/>
  <path fill="#14b8a6" d="M32 14 45 19.5V30c0 9.3-4.8 16-13 20.2C23.8 46 19 39.3 19 30V19.5z"/>
  <path fill="#ecfeff" d="M29 23h6v19h-6z"/>
  <path fill="#ecfeff" d="M22.5 29.5h19v6h-19z"/>
  <path fill="#134e4a" d="M41.2 17.8c-7.6 1.3-13.6 6.8-15.6 14.2 6.9-.4 13.1-4.5 16.2-10.9.5-1 .3-2.2-.6-3.3Z" opacity=".72"/>
</svg>
